<svg id="Layer_1" data-name="Layer 1" xmlns="http://www.w3.org/2000/svg" viewBox="0 0 29.14 25.55"><defs><style>.cls-1{fill:#1f1f2b;}</style></defs><title>arrow-left</title><path class="cls-1" d="M28.23,15.12H1.89a1.4,1.4,0,1,1,0-2.8H28.23a1.4,1.4,0,0,1,0,2.8Z" transform="translate(-0.49 -0.95)"/><path class="cls-1" d="M13.26,26.5a1.37,1.37,0,0,1-1-.42L.9,14.71a1.4,1.4,0,0,1,0-2L12.27,1.36a1.4,1.4,0,0,1,2,2L3.87,13.72,14.25,24.1a1.39,1.39,0,0,1,0,2A1.37,1.37,0,0,1,13.26,26.5Z" transform="translate(-0.49 -0.95)"/></svg>