<svg id="Layer_1" data-name="Layer 1" xmlns="http://www.w3.org/2000/svg" viewBox="0 0 38.14 25.55"><defs><style>.cls-1{fill:#7d7;}</style></defs><title>arrow-right</title><path class="cls-1" d="M37.11,15.12H1.77a1.4,1.4,0,1,1,0-2.8H37.11a1.4,1.4,0,0,1,0,2.8Z" transform="translate(-0.37 -0.95)"/><path class="cls-1" d="M25.74,26.5a1.37,1.37,0,0,1-1-.42,1.39,1.39,0,0,1,0-2L35.13,13.72,24.75,3.33a1.4,1.4,0,0,1,2-2L38.1,12.73a1.4,1.4,0,0,1,0,2L26.73,26.08A1.37,1.37,0,0,1,25.74,26.5Z" transform="translate(-0.37 -0.95)"/></svg>