<svg id="Layer_1" data-name="Layer 1" xmlns="http://www.w3.org/2000/svg" xmlns:xlink="http://www.w3.org/1999/xlink" viewBox="0 0 42.2 42.2"><defs><style>.cls-1{fill:none;}.cls-2{clip-path:url(#clip-path);}.cls-3{fill:#fff;}</style><clipPath id="clip-path" transform="translate(-4.9 -4.9)"><rect class="cls-1" width="52" height="52"/></clipPath></defs><title>bot</title><g class="cls-2"><path class="cls-3" d="M41.17,47.1H10.83A5.94,5.94,0,0,1,4.9,41.17v-13a6,6,0,0,1,5.93-5.94H41.17a6,6,0,0,1,5.93,5.94v13A5.94,5.94,0,0,1,41.17,47.1ZM10.83,25.43A2.74,2.74,0,0,0,8.1,28.17v13a2.74,2.74,0,0,0,2.73,2.73H41.17a2.74,2.74,0,0,0,2.73-2.73v-13a2.74,2.74,0,0,0-2.73-2.74Z" transform="translate(-4.9 -4.9)"/><path class="cls-3" d="M26,16.77a5.94,5.94,0,1,1,5.93-5.94A5.95,5.95,0,0,1,26,16.77ZM26,8.1a2.74,2.74,0,1,0,2.73,2.73A2.73,2.73,0,0,0,26,8.1Z" transform="translate(-4.9 -4.9)"/><path class="cls-3" d="M26,25.43a1.6,1.6,0,0,1-1.6-1.6V15.17a1.6,1.6,0,0,1,3.2,0v8.66A1.6,1.6,0,0,1,26,25.43Z" transform="translate(-4.9 -4.9)"/></g></svg>