<svg width="54" height="54" viewBox="0 0 54 54" fill="none" xmlns="http://www.w3.org/2000/svg">
<g clip-path="url(#clip0_2_489)">
<path d="M27 14.0529L33.4119 8.70968H41.8065V0H20.9032V8.70968H27V14.0529ZM22.6452 6.96774V1.74194H40.0645V6.96774H32.7816L28.7419 10.3342V6.96774H22.6452Z" fill="#77DD77"/>
<path d="M24.3871 3.48389H26.129V5.22582H24.3871V3.48389Z" fill="#55C595"/>
<path d="M27.871 3.48389H34.8387V5.22582H27.871V3.48389Z" fill="#55C595"/>
<path d="M36.5806 3.48389H38.3226V5.22582H36.5806V3.48389Z" fill="#55C595"/>
<path opacity="0.88" d="M44.3364 52.2581L43.6322 45.2075C46.5402 44.7477 48.7742 42.2297 48.7742 39.1936V27.871H45.2903V26.6675C45.2903 25.4835 44.6396 24.4203 43.5935 23.8751C44.6337 22.9195 45.2903 21.5531 45.2903 20.0323V18.2904C45.2903 15.4083 42.9466 13.0646 40.0645 13.0646C37.1824 13.0646 34.8387 15.4083 34.8387 18.2904V20.0323C34.8387 22.2871 36.2766 24.2068 38.2818 24.9383L33.6071 29.613H28.7228C28.6254 28.1611 27.6281 26.8954 26.2154 26.4914L22.6452 25.4725V23.9168C23.7113 22.9595 24.3871 21.5756 24.3871 20.0323V18.2904C24.3871 15.4083 22.0434 13.0646 19.1613 13.0646C16.2792 13.0646 13.9355 15.4083 13.9355 18.2904V20.0323C13.9355 21.5748 14.6112 22.9587 15.6774 23.9168V25.4733L12.1072 26.4923C10.6196 26.9163 9.58064 28.2942 9.58064 29.8422V33.0968H6.09677V38.3226H7.83871V52.2581H0V54.0001H54V52.2581H44.3364ZM36.5806 38.3226V34.3284L42.7523 28.1568C43.1984 27.7107 43.4638 27.1115 43.5233 26.4863C43.531 26.5471 43.5484 26.6046 43.5484 26.6675V37.4517C43.5484 38.8921 42.3759 40.0646 40.9355 40.0646H33.9677V38.3226H36.5806ZM33.9677 45.2904H38.4055L39.1021 52.2581H33.9677V45.2904ZM40.1559 45.2904H41.8894L42.586 52.2581H40.8526L40.1559 45.2904ZM45.2903 37.4517V29.613H47.0323V39.1936C47.0323 41.5947 45.0785 43.5484 42.6774 43.5484H33.9677V41.8065H40.9355C43.3366 41.8065 45.2903 39.8528 45.2903 37.4517ZM36.5806 20.0323V18.2904C36.5806 16.369 38.1431 14.8065 40.0645 14.8065C41.9859 14.8065 43.5484 16.369 43.5484 18.2904V20.0323C43.5484 21.9537 41.9859 23.5162 40.0645 23.5162C38.1431 23.5162 36.5806 21.9537 36.5806 20.0323ZM34.3284 31.3549L40.1394 25.5439C40.3214 25.3619 40.5731 25.2581 40.83 25.2581C41.3684 25.2581 41.8065 25.6962 41.8065 26.2346C41.8065 26.4914 41.7027 26.7432 41.5207 26.9252L35.349 33.0968H26.129C25.6485 33.0968 25.2581 32.7064 25.2581 32.2259C25.2581 31.7453 25.6485 31.3549 26.129 31.3549H34.3284ZM15.6774 18.2904C15.6774 16.369 17.2399 14.8065 19.1613 14.8065C21.0827 14.8065 22.6452 16.369 22.6452 18.2904V20.0323C22.6452 21.9537 21.0827 23.5162 19.1613 23.5162C17.2399 23.5162 15.6774 21.9537 15.6774 20.0323V18.2904ZM19.1613 25.2581C19.7728 25.2581 20.3572 25.1467 20.9032 24.9532V25.8888C20.6872 26.2222 20.0871 27.0001 19.1613 27.0001C18.2355 27.0001 17.6354 26.2222 17.4194 25.8888V24.9532C17.9654 25.1467 18.5497 25.2581 19.1613 25.2581ZM11.3226 29.8422C11.3226 29.0678 11.8427 28.3797 12.5857 28.167L16.1737 27.1421C16.6789 27.8004 17.6622 28.742 19.1613 28.742C20.6604 28.742 21.6436 27.8004 22.1489 27.1413L25.7369 28.1662C26.4042 28.3571 26.8694 28.9372 26.9626 29.6121H26.129C24.6886 29.6121 23.5161 30.7846 23.5161 32.225C23.5161 32.5316 23.5786 32.8225 23.6765 33.096H11.3226V29.8422ZM7.83871 34.8388H34.8387V36.5807H7.83871V34.8388ZM9.58064 41.8065H12.1935V40.0646H9.58064V38.3226H32.2258V40.0646H13.9355V41.8065H32.2258V52.2581H30.1513L28.4094 48.7743H13.3971L11.6551 52.2581H9.58064V41.8065ZM28.2035 52.2581H13.6029L14.4739 50.5162H27.3326L28.2035 52.2581Z" fill="white"/>
</g>
<defs>
<clipPath id="clip0_2_489">
<rect width="54" height="54" fill="white"/>
</clipPath>
</defs>
</svg>
