<svg width="97" height="97" viewBox="0 0 97 97" fill="none" xmlns="http://www.w3.org/2000/svg">
<g opacity="0.75">
<ellipse cx="1.55285" cy="1.45873" rx="1.55285" ry="1.45873" fill="#77DD77"/>
<ellipse cx="20.1858" cy="1.45873" rx="1.55285" ry="1.45873" fill="#77DD77"/>
<ellipse cx="38.8217" cy="1.45873" rx="1.55285" ry="1.45873" fill="#77DD77"/>
<ellipse cx="57.4547" cy="1.45873" rx="1.55285" ry="1.45873" fill="#77DD77"/>
<ellipse cx="76.0906" cy="1.45873" rx="1.55285" ry="1.45873" fill="#77DD77"/>
<ellipse cx="94.7236" cy="1.45873" rx="1.55285" ry="1.45873" fill="#77DD77"/>
<ellipse cx="1.55285" cy="24.7986" rx="1.55285" ry="1.45873" fill="#77DD77"/>
<ellipse cx="20.1858" cy="24.7986" rx="1.55285" ry="1.45873" fill="#77DD77"/>
<ellipse cx="38.8217" cy="24.7986" rx="1.55285" ry="1.45873" fill="#77DD77"/>
<ellipse cx="57.4547" cy="24.7986" rx="1.55285" ry="1.45873" fill="#77DD77"/>
<ellipse cx="76.0906" cy="24.7986" rx="1.55285" ry="1.45873" fill="#77DD77"/>
<ellipse cx="94.7236" cy="24.7986" rx="1.55285" ry="1.45873" fill="#77DD77"/>
<ellipse cx="1.55285" cy="48.1384" rx="1.55285" ry="1.45873" fill="#77DD77"/>
<ellipse cx="20.1858" cy="48.1384" rx="1.55285" ry="1.45873" fill="#77DD77"/>
<ellipse cx="38.8217" cy="48.1384" rx="1.55285" ry="1.45873" fill="#77DD77"/>
<ellipse cx="57.4547" cy="48.1384" rx="1.55285" ry="1.45873" fill="#77DD77"/>
<ellipse cx="76.0906" cy="48.1384" rx="1.55285" ry="1.45873" fill="#77DD77"/>
<ellipse cx="94.7236" cy="48.1384" rx="1.55285" ry="1.45873" fill="#77DD77"/>
<ellipse cx="1.55285" cy="71.4778" rx="1.55285" ry="1.45873" fill="#77DD77"/>
<ellipse cx="20.1858" cy="71.4778" rx="1.55285" ry="1.45873" fill="#77DD77"/>
<ellipse cx="38.8217" cy="71.4778" rx="1.55285" ry="1.45873" fill="#77DD77"/>
<ellipse cx="57.4547" cy="71.4778" rx="1.55285" ry="1.45873" fill="#77DD77"/>
<ellipse cx="76.0906" cy="71.4778" rx="1.55285" ry="1.45873" fill="#77DD77"/>
<ellipse cx="94.7236" cy="71.4778" rx="1.55285" ry="1.45873" fill="#77DD77"/>
<ellipse cx="1.55285" cy="94.8176" rx="1.55285" ry="1.45873" fill="#77DD77"/>
<ellipse cx="20.1858" cy="94.8176" rx="1.55285" ry="1.45873" fill="#77DD77"/>
<ellipse cx="38.8217" cy="94.8176" rx="1.55285" ry="1.45873" fill="#77DD77"/>
<ellipse cx="57.4547" cy="94.8176" rx="1.55285" ry="1.45873" fill="#77DD77"/>
<ellipse cx="76.0906" cy="94.8176" rx="1.55285" ry="1.45873" fill="#77DD77"/>
<ellipse cx="94.7236" cy="94.8176" rx="1.55285" ry="1.45873" fill="#77DD77"/>
</g>
</svg>
