<svg xmlns="http://www.w3.org/2000/svg" viewBox="0 0 13 22"><defs><style>.cls-1{fill:#f2f2f2;}</style></defs><title>Asset 1</title><g id="Layer_2" data-name="Layer 2"><g id="Layer_1-2" data-name="Layer 1"><path class="cls-1" d="M8,22H4a1,1,0,0,1-1-1V14H1a1,1,0,0,1-1-1V9A1,1,0,0,1,1,8H3V6A6,6,0,0,1,9,0h3a1,1,0,0,1,1,1V5a1,1,0,0,1-1,1H9V8h3a1,1,0,0,1,.79.38,1,1,0,0,1,.18.86l-1,4A1,1,0,0,1,11,14H9v7A1,1,0,0,1,8,22ZM5,20H7V13a1,1,0,0,1,1-1h2.22l.5-2H8A1,1,0,0,1,7,9V6A2,2,0,0,1,9,4h2V2H9A4,4,0,0,0,5,6V9a1,1,0,0,1-1,1H2v2H4a1,1,0,0,1,1,1Z"/></g></g></svg>