<svg id="Layer_1" data-name="Layer 1" xmlns="http://www.w3.org/2000/svg" viewBox="0 0 42.2 42.2"><defs><style>.cls-1{fill:#fff;}</style></defs><title>headphones</title><path class="cls-1" d="M45.5,40.6A1.6,1.6,0,0,1,43.9,39V26A17.9,17.9,0,1,0,8.1,26V39a1.6,1.6,0,0,1-3.2,0V26a21.1,21.1,0,0,1,36-14.92A20.94,20.94,0,0,1,47.1,26V39A1.6,1.6,0,0,1,45.5,40.6Z" transform="translate(-4.9 -4.9)"/><path class="cls-1" d="M41.17,47.1H39a5.92,5.92,0,0,1-5.93-5.93v-6.5A5.92,5.92,0,0,1,39,28.73h6.5a1.6,1.6,0,0,1,1.6,1.6V41.17a5.94,5.94,0,0,1-5.93,5.93ZM39,31.93a2.73,2.73,0,0,0-2.73,2.74v6.5a2.74,2.74,0,0,0,.8,1.93,2.68,2.68,0,0,0,1.93.8h2.17a2.73,2.73,0,0,0,2.73-2.73V31.93ZM13,47.1H10.83A5.94,5.94,0,0,1,4.9,41.17V30.33a1.6,1.6,0,0,1,1.6-1.6H13a5.92,5.92,0,0,1,5.93,5.94v6.5a5.94,5.94,0,0,1-1.74,4.19A5.86,5.86,0,0,1,13,47.1ZM8.1,31.93v9.24a2.74,2.74,0,0,0,.8,1.93,2.7,2.7,0,0,0,1.93.8H13a2.68,2.68,0,0,0,1.93-.8,2.74,2.74,0,0,0,.8-1.93v-6.5A2.73,2.73,0,0,0,13,31.93Z" transform="translate(-4.9 -4.9)"/></svg>