<svg id="Layer_1" data-name="Layer 1" xmlns="http://www.w3.org/2000/svg" viewBox="0 0 42.2 46.53"><defs><style>.cls-1{fill:#fff;}</style></defs><title>home</title><path class="cls-1" d="M41.17,49.27H10.83A5.94,5.94,0,0,1,4.9,43.33V19.5a1.6,1.6,0,0,1,.62-1.26L25,3.07a1.59,1.59,0,0,1,2,0l19.5,15.17a1.6,1.6,0,0,1,.62,1.26V43.33a5.9,5.9,0,0,1-1.74,4.2A6,6,0,0,1,41.17,49.27ZM8.1,20.28v23a2.73,2.73,0,0,0,2.73,2.74H41.17a2.73,2.73,0,0,0,2.73-2.74v-23L26,6.36Z" transform="translate(-4.9 -2.73)"/><path class="cls-1" d="M32.5,49.27a1.6,1.6,0,0,1-1.6-1.6V27.6H21.1V47.67a1.6,1.6,0,0,1-3.2,0V26a1.6,1.6,0,0,1,1.6-1.6h13A1.6,1.6,0,0,1,34.1,26V47.67A1.6,1.6,0,0,1,32.5,49.27Z" transform="translate(-4.9 -2.73)"/></svg>