<svg id="Layer_1" data-name="Layer 1" xmlns="http://www.w3.org/2000/svg" viewBox="0 0 22 22"><defs><style>.cls-1{fill:#8c8c8c;}</style></defs><title>info</title><path class="cls-1" d="M12,23A11,11,0,1,1,23,12,11,11,0,0,1,12,23ZM12,3a9,9,0,1,0,9,9A9,9,0,0,0,12,3Z" transform="translate(-1 -1)"/><path class="cls-1" d="M12,17a1,1,0,0,1-1-1V12a1,1,0,0,1,2,0v4A1,1,0,0,1,12,17Z" transform="translate(-1 -1)"/><path class="cls-1" d="M12,9a1,1,0,1,1,0-2h0a1,1,0,0,1,0,2Z" transform="translate(-1 -1)"/></svg>