<svg id="Layer_1" data-name="Layer 1" xmlns="http://www.w3.org/2000/svg" viewBox="0 0 22 21"><defs><style>.cls-1{fill:#f2f2f2;}</style></defs><title>linkedin</title><path class="cls-1" d="M22,22H18a1,1,0,0,1-1-1V14a1,1,0,1,0-2,0v7a1,1,0,0,1-1,1H10a1,1,0,0,1-1-1V14a7,7,0,1,1,14,0v7A1,1,0,0,1,22,22Zm-3-2h2V14a5,5,0,0,0-1.46-3.54A5,5,0,0,0,11,14v6h2V14a3,3,0,0,1,.88-2.12,3.08,3.08,0,0,1,4.24,0A3,3,0,0,1,19,14Z" transform="translate(-1 -1)"/><path class="cls-1" d="M6,22H2a1,1,0,0,1-1-1V9A1,1,0,0,1,2,8H6A1,1,0,0,1,7,9V21A1,1,0,0,1,6,22ZM3,20H5V10H3Z" transform="translate(-1 -1)"/><path class="cls-1" d="M4,7A3,3,0,1,1,7,4,3,3,0,0,1,4,7ZM4,3A1,1,0,1,0,5,4,1,1,0,0,0,4,3Z" transform="translate(-1 -1)"/></svg>