<svg id="Layer_1" data-name="Layer 1" xmlns="http://www.w3.org/2000/svg" viewBox="0 0 42.2 42.2"><defs><style>.cls-1{fill:#fff;}</style></defs><title>message-square</title><path class="cls-1" d="M6.5,47.1A1.62,1.62,0,0,1,5.89,47a1.6,1.6,0,0,1-1-1.48V10.83A5.94,5.94,0,0,1,10.83,4.9H41.17a5.94,5.94,0,0,1,5.93,5.93V32.5a5.92,5.92,0,0,1-5.93,5.93H15.83l-8.2,8.2A1.56,1.56,0,0,1,6.5,47.1Zm4.33-39A2.73,2.73,0,0,0,8.1,10.83V41.64L14,35.7a1.57,1.57,0,0,1,1.13-.47h26a2.74,2.74,0,0,0,1.93-.8,2.68,2.68,0,0,0,.8-1.93V10.83a2.7,2.7,0,0,0-.8-1.93,2.74,2.74,0,0,0-1.93-.8Z" transform="translate(-4.9 -4.9)"/></svg>