<svg width="46" height="54" viewBox="0 0 46 54" fill="none" xmlns="http://www.w3.org/2000/svg">
<path d="M28.8462 16.5166C29.2824 16.5166 29.6361 16.163 29.6361 15.7268C29.6361 15.2906 29.2824 14.9369 28.8462 14.9369H13.8574C13.4212 14.9369 13.0675 15.2906 13.0675 15.7268C13.0675 16.163 13.4212 16.5166 13.8574 16.5166H28.8462Z" fill="#77DD77"/>
<path opacity="0.88" d="M5.10895 20.3125C5.10895 20.7487 5.46262 21.1023 5.89883 21.1023H24.3189C24.7551 21.1023 25.1088 20.7487 25.1088 20.3125C25.1088 19.8762 24.7551 19.5226 24.3189 19.5226H5.89883C5.46262 19.5226 5.10895 19.8762 5.10895 20.3125Z" fill="#E5E5E7"/>
<path opacity="0.88" d="M5.89883 25.688H21.3518C21.788 25.688 22.1417 25.3344 22.1417 24.8981C22.1417 24.4619 21.788 24.1083 21.3518 24.1083H5.89883C5.46262 24.1083 5.10895 24.4619 5.10895 24.8981C5.10895 25.3344 5.46262 25.688 5.89883 25.688Z" fill="#E5E5E7"/>
<path d="M5.89883 30.2737H20.0744C20.5106 30.2737 20.8642 29.92 20.8642 29.4838C20.8642 29.0476 20.5106 28.694 20.0744 28.694H5.89883C5.46262 28.694 5.10895 29.0476 5.10895 29.4838C5.10895 29.9202 5.46262 30.2737 5.89883 30.2737Z" fill="#77DD77"/>
<path opacity="0.88" d="M5.89883 34.8594H20.0744C20.5106 34.8594 20.8642 34.5057 20.8642 34.0695C20.8642 33.6333 20.5106 33.2797 20.0744 33.2797H5.89883C5.46262 33.2797 5.10895 33.6333 5.10895 34.0695C5.10895 34.5057 5.46262 34.8594 5.89883 34.8594Z" fill="#1F1F2B"/>
<path d="M5.89883 39.4451H21.3518C21.788 39.4451 22.1417 39.0914 22.1417 38.6552C22.1417 38.219 21.788 37.8654 21.3518 37.8654H5.89883C5.46262 37.8654 5.10895 38.219 5.10895 38.6552C5.10895 39.0914 5.46262 39.4451 5.89883 39.4451Z" fill="#77DD77"/>
<path opacity="0.88" d="M5.89882 44.0308H28.8462C29.2824 44.0308 29.636 43.6771 29.636 43.2409C29.636 42.8047 29.2824 42.451 28.8462 42.451H5.89882C5.46262 42.451 5.10895 42.8047 5.10895 43.2409C5.10895 43.6772 5.46262 44.0308 5.89882 44.0308Z" fill="#E5E5E7"/>
<path d="M5.89882 48.6165H28.8462C29.2824 48.6165 29.636 48.2628 29.636 47.8266C29.636 47.3904 29.2824 47.0367 28.8462 47.0367H5.89882C5.46262 47.0367 5.10895 47.3904 5.10895 47.8266C5.10895 48.2629 5.46262 48.6165 5.89882 48.6165Z" fill="#77DD77"/>
<path opacity="0.88" d="M34.6229 19.3867C34.5691 19.3867 34.5155 19.3892 34.4618 19.3899V9.34687C34.4618 8.0315 33.3916 6.96132 32.0762 6.96132H25.9893V5.75642C25.9893 4.96886 25.3512 4.32825 24.5669 4.32825H21.3102V3.96699C21.3102 1.77952 19.5438 0 17.3726 0C15.2013 0 13.4349 1.77952 13.4349 3.96689V4.32815H10.1781C9.39387 4.32815 8.75579 4.96886 8.75579 5.75632V6.96132H2.66879C1.35341 6.96132 0.283234 8.0315 0.283234 9.34687V13.0877C0.283234 13.524 0.636902 13.8776 1.07311 13.8776C1.50932 13.8776 1.86299 13.524 1.86299 13.0877V9.34687C1.86299 8.90254 2.22446 8.54107 2.66879 8.54107H8.75579V9.74608C8.75579 10.5335 9.39387 11.1742 10.1781 11.1742H24.5671C25.3513 11.1742 25.9894 10.5335 25.9894 9.74608V8.54107H32.0763C32.5206 8.54107 32.8821 8.90254 32.8821 9.34687V19.5221C31.138 19.7955 29.4918 20.4805 28.049 21.5435C27.6978 21.8022 27.6228 22.2967 27.8816 22.6479C28.1404 22.9991 28.6349 23.0741 28.986 22.8153C30.6278 21.6057 32.577 20.9665 34.6229 20.9665C39.8692 20.9665 44.1372 25.2346 44.1372 30.4807C44.1372 35.7268 39.8692 39.9948 34.6229 39.9948C29.3768 39.9948 25.1088 35.7268 25.1088 30.4807C25.1088 28.6171 25.6472 26.8127 26.666 25.2626C26.9056 24.8981 26.8043 24.4083 26.4398 24.1687C26.0753 23.9292 25.5856 24.0305 25.3459 24.3949C24.1573 26.2034 23.529 28.3078 23.529 30.4806C23.529 36.0056 27.589 40.5997 32.882 41.4374V51.6145C32.882 52.0588 32.5205 52.4202 32.0762 52.4202H2.66879C2.22446 52.4202 1.86299 52.0588 1.86299 51.6145V16.7525C1.86299 16.3163 1.50932 15.9626 1.07311 15.9626C0.636902 15.9626 0.283234 16.3163 0.283234 16.7525V51.6146C0.283234 52.9299 1.35341 54.0001 2.66879 54.0001H32.0763C33.3917 54.0001 34.4619 52.9299 34.4619 51.6146V41.5725C34.5155 41.5732 34.5692 41.5745 34.6231 41.5745C40.7402 41.5745 45.717 36.5978 45.717 30.4807C45.717 24.3635 40.7401 19.3867 34.6229 19.3867ZM24.4097 9.5946H10.3353V5.9079H14.2245C14.6607 5.9079 15.0144 5.55423 15.0144 5.11802V3.96689C15.0144 2.65057 16.0723 1.57965 17.3724 1.57965C18.6727 1.57965 19.7305 2.65057 19.7305 3.96689V5.11792C19.7305 5.55413 20.0842 5.9078 20.5204 5.9078H24.4096V9.5946H24.4097Z" fill="white"/>
<path d="M33.1854 36.0176C33.2082 36.0176 33.2308 36.0173 33.2558 36.0167C33.9156 35.9978 34.5507 35.7089 34.9982 35.2241L40.6666 29.0846C41.1137 28.6004 41.3454 27.9711 41.3192 27.3125C41.293 26.654 41.0119 26.0452 40.5277 25.5981C40.0435 25.1511 39.4145 24.9198 38.7557 24.9455C38.0971 24.9718 37.4882 25.2529 37.0413 25.7371L33.0851 30.0219L32.1067 29.0762C31.1285 28.131 29.5634 28.1578 28.618 29.1358C27.6726 30.114 27.6993 31.679 28.6774 32.6244L31.4708 35.3243C31.9333 35.7715 32.5422 36.0176 33.1854 36.0176ZM29.7537 30.2337C29.9276 30.0539 30.1598 29.9634 30.3922 29.9634C30.6144 29.9634 30.8368 30.0461 31.0089 30.2123L32.5684 31.7195C32.7214 31.8673 32.9278 31.947 33.1398 31.9411C33.3523 31.935 33.5534 31.8436 33.6976 31.6874C33.6976 31.6874 38.2003 26.8106 38.2019 26.8088C38.5393 26.4433 39.0859 26.417 39.456 26.7587C39.8133 27.0885 39.8363 27.6551 39.506 28.0129L33.8375 34.1525C33.6765 34.327 33.4481 34.4308 33.2129 34.4376L33.1855 34.438C32.9541 34.438 32.7351 34.3494 32.5687 34.1886L29.7751 31.4887C29.4232 31.1486 29.4136 30.5856 29.7537 30.2337Z" fill="#77DD77"/>
</svg>
