<svg id="Layer_1" data-name="Layer 1" xmlns="http://www.w3.org/2000/svg" viewBox="0 0 42.28 46.53"><defs><style>.cls-1{fill:#fff;}</style></defs><title>settings</title><path class="cls-1" d="M26.48,49.27h-1a5.94,5.94,0,0,1-5.93-5.94v-.39a2.75,2.75,0,0,0-1.37-2.36L17.29,40a2.77,2.77,0,0,0-2.73,0l-.37.2a5.94,5.94,0,0,1-8.06-2.19l-.47-.83a5.92,5.92,0,0,1,2.16-8.1l.3-.18a2.73,2.73,0,0,0,1-1,2.76,2.76,0,0,0,.37-1.37V25.44a2.91,2.91,0,0,0-.37-1.35,2.71,2.71,0,0,0-1-1L8.06,23l-.29-.19a5.92,5.92,0,0,1-2.11-8.07L6.13,14a5.93,5.93,0,0,1,8.1-2.16l.28.14a2.72,2.72,0,0,0,2.78,0l.93-.54a2.75,2.75,0,0,0,1.37-2.37V8.67a5.94,5.94,0,0,1,5.93-5.94h1a5.94,5.94,0,0,1,5.93,5.94v.39a2.75,2.75,0,0,0,1.37,2.36l.93.54a2.77,2.77,0,0,0,2.73,0l.37-.2A5.94,5.94,0,0,1,45.87,14l.47.83a5.86,5.86,0,0,1,.6,4.5,5.94,5.94,0,0,1-2.76,3.6l-.3.18a2.73,2.73,0,0,0-1,1,2.76,2.76,0,0,0-.37,1.37v1.09a2.78,2.78,0,0,0,1.37,2.39l.28.14a5.92,5.92,0,0,1,2.21,8.13l-.46.83a5.92,5.92,0,0,1-8.11,2.18l-.28-.15a2.76,2.76,0,0,0-2.78,0l-.93.54A2.75,2.75,0,0,0,32.41,43v.38a5.94,5.94,0,0,1-5.93,5.94ZM15.92,36.47a6,6,0,0,1,3,.8l.94.54A6,6,0,0,1,22,40a5.92,5.92,0,0,1,.8,3v.39a2.73,2.73,0,0,0,2.73,2.74h1a2.73,2.73,0,0,0,2.73-2.74v-.39a6,6,0,0,1,3-5.13l.92-.54a6,6,0,0,1,5.94,0l.28.15a2.79,2.79,0,0,0,2.12.29,2.71,2.71,0,0,0,1.66-1.27l.46-.83a2.67,2.67,0,0,0,.28-2.08,2.71,2.71,0,0,0-1.26-1.66l-.28-.15a6,6,0,0,1-2.23-2.2,5.9,5.9,0,0,1-.78-3V25.46a5.84,5.84,0,0,1,.78-3,6,6,0,0,1,2.18-2.19l.3-.18a2.74,2.74,0,0,0,1-3.74l-.47-.82a2.75,2.75,0,0,0-1.66-1.27,2.72,2.72,0,0,0-2.07.27l-.37.2a6.08,6.08,0,0,1-5.89,0l-.94-.54A6,6,0,0,1,30,12a5.92,5.92,0,0,1-.8-3V8.67a2.73,2.73,0,0,0-2.73-2.74h-1a2.73,2.73,0,0,0-2.73,2.74v.39a6,6,0,0,1-3,5.13l-.92.54a6,6,0,0,1-5.94,0l-.28-.14a2.75,2.75,0,0,0-2.12-.3A2.71,2.71,0,0,0,8.9,15.56l-.47.82a2.71,2.71,0,0,0,1,3.73l.08.05.29.19a6,6,0,0,1,2.92,5.08v1.11a5.93,5.93,0,0,1-3,5.16l-.3.18a2.71,2.71,0,0,0-1,3.74l.47.82a2.74,2.74,0,0,0,3.73,1l.37-.2A6,6,0,0,1,15.92,36.47Z" transform="translate(-4.86 -2.73)"/><path class="cls-1" d="M26,34.1A8.1,8.1,0,1,1,34.1,26,8.1,8.1,0,0,1,26,34.1Zm0-13A4.9,4.9,0,1,0,30.9,26,4.91,4.91,0,0,0,26,21.1Z" transform="translate(-4.86 -2.73)"/></svg>