<svg width="50" height="50" viewBox="0 0 50 50" fill="none" xmlns="http://www.w3.org/2000/svg">
<g clip-path="url(#clip0_2_499)">
<path d="M44.2417 35.2854C43.9675 35.1718 43.6518 35.2346 43.4419 35.4444L35.4217 43.4646C35.2119 43.6745 35.1491 43.9902 35.2628 44.2644C35.3762 44.5387 35.644 44.7174 35.9408 44.7174H43.9609C44.3663 44.7174 44.6948 44.3889 44.6948 43.9835V35.9634C44.6947 35.6666 44.5159 35.399 44.2417 35.2854ZM37.7123 43.2497L43.2268 37.7352V43.2497H37.7123Z" fill="#77DD77"/>
<path opacity="0.88" d="M49.5471 23.5222C49.2729 23.4085 48.9572 23.4713 48.7473 23.6812L46.5493 25.8791V10.9347C46.5493 10.5293 46.2207 10.2008 45.8154 10.2008H40.1766L42.2235 8.15392C42.2238 8.15363 42.2241 8.15324 42.2244 8.15294L44.1967 6.18068C44.6192 5.75812 44.8519 5.19601 44.8519 4.59835C44.8519 4.00069 44.6192 3.43878 44.1967 3.01602L41.916 0.735353C41.4934 0.312793 40.9313 0.0800781 40.3337 0.0800781C39.736 0.0800781 39.174 0.312793 38.7513 0.735353L36.7781 2.7086L34.3937 5.09298L29.286 10.2007H6.50587V2.94043C6.50587 2.53506 6.17726 2.20655 5.77198 2.20655C2.58936 2.20674 0 4.79591 0 7.97872V39.1493C0 39.2035 0.00625001 39.2562 0.0173828 39.307C0.11875 40.6575 0.703029 41.9123 1.6795 42.8648C2.72325 43.8828 4.10108 44.4434 5.55929 44.4434H27.9849L23.7614 48.667C23.5515 48.8769 23.4887 49.1925 23.6023 49.4668C23.7159 49.741 23.9835 49.9198 24.2803 49.9198H49.2662C49.6715 49.9198 50.0001 49.5913 50.0001 49.1859V24.2002C50.0001 23.9035 49.8212 23.6358 49.5471 23.5222ZM39.7894 1.77334C40.0894 1.47315 40.5782 1.47315 40.8782 1.77334L43.159 4.05411C43.4592 4.35421 43.4592 4.84278 43.159 5.14298L41.7048 6.59728L38.335 3.22764L39.7894 1.77334ZM37.2971 4.26553L40.6668 7.63507L39.3202 8.98166L35.9508 5.61212L37.2971 4.26553ZM48.5325 32.4465H47.1785C46.7731 32.4465 46.4446 32.7751 46.4446 33.1804C46.4446 33.5858 46.7731 33.9143 47.1785 33.9143H48.5325V36.1258H47.1785C46.7731 36.1258 46.4446 36.4544 46.4446 36.8597C46.4446 37.2651 46.7731 37.5936 47.1785 37.5936H48.5325V39.805H47.1785C46.7731 39.805 46.4446 40.1336 46.4446 40.5389C46.4446 40.9443 46.7731 41.2728 47.1785 41.2728H48.5325V43.4844H47.1785C46.7731 43.4844 46.4446 43.813 46.4446 44.2182C46.4446 44.6236 46.7731 44.9521 47.1785 44.9521H48.5325V48.4523H26.052L33.4649 41.0395C33.7515 40.7528 33.7515 40.2883 33.4649 40.0016C33.432 39.9687 33.3966 39.9402 33.3596 39.9148C33.0739 39.7191 32.6807 39.7479 32.4269 40.0016L29.4527 42.9759H5.55939C3.3336 42.9759 1.5418 41.2382 1.47129 39.0164C1.47549 38.8769 1.48633 38.7386 1.50371 38.6019C1.50381 38.6011 1.50391 38.6004 1.50401 38.5996C1.51221 38.5346 1.52207 38.47 1.5333 38.4057C1.53457 38.3984 1.53594 38.3911 1.53721 38.3838C1.54746 38.3264 1.55899 38.2694 1.57159 38.2126C1.5751 38.1967 1.57881 38.1809 1.58252 38.1652C1.59366 38.1172 1.60567 38.0694 1.61856 38.0218C1.62559 37.9961 1.63291 37.9706 1.64043 37.9449C1.65118 37.9076 1.66231 37.8704 1.67412 37.8336C1.68594 37.7967 1.69854 37.7603 1.71133 37.7239C1.72022 37.6984 1.72901 37.6729 1.73858 37.6476C1.75645 37.5996 1.77539 37.552 1.79493 37.5049C1.80049 37.4913 1.80596 37.4775 1.81172 37.4639C1.83682 37.4053 1.86289 37.3474 1.89043 37.2902C1.89161 37.2878 1.89268 37.2853 1.89385 37.2829C2.46788 36.095 3.57188 35.2093 4.89679 34.9345C4.9005 34.9338 4.90421 34.9329 4.90792 34.9321C4.96866 34.9197 5.02999 34.909 5.09171 34.8992C5.10196 34.8975 5.11222 34.8955 5.12267 34.8939C5.17843 34.8854 5.23478 34.8788 5.29112 34.8724C5.30694 34.8707 5.32267 34.8682 5.33859 34.8667C5.39298 34.8612 5.44786 34.8576 5.50275 34.8542C5.52013 34.8531 5.53751 34.8512 5.55489 34.8504C5.62677 34.8467 5.69923 34.8449 5.77198 34.8449C6.17726 34.8449 6.50587 34.5164 6.50587 34.111V28.7898C6.50587 28.3844 6.17726 28.0559 5.77198 28.0559C5.36671 28.0559 5.0381 28.3844 5.0381 28.7898V33.4233C3.79884 33.58 2.64854 34.1328 1.74151 35.0185C1.6461 35.1117 1.55567 35.2086 1.46758 35.307V7.97872C1.46758 5.85558 3.01309 4.08634 5.038 3.73692V10.9347V25.8543V25.8544C5.038 26.2597 5.36661 26.5883 5.77189 26.5883C6.17716 26.5883 6.50578 26.2597 6.50578 25.8544V25.8543V11.6686H27.8183L23.7613 15.7256C23.4747 16.0123 23.4747 16.4769 23.7613 16.7635C24.0479 17.05 24.5126 17.05 24.7991 16.7635L30.1089 11.4536C30.1091 11.4534 30.1092 11.4532 30.1094 11.4531L34.9127 6.64991L38.2821 10.0195L37.8868 10.4149C37.8865 10.4152 37.8861 10.4154 37.8858 10.4157L23.0881 25.2136L19.7186 21.8441L22.6354 18.9273C22.922 18.6406 22.922 18.176 22.6354 17.8894C22.3488 17.6029 21.8841 17.6029 21.5976 17.8894L18.1618 21.3251C18.1434 21.3435 18.1262 21.3629 18.1101 21.3829C18.1047 21.3895 18.0999 21.3966 18.0949 21.4036C18.0845 21.4173 18.0744 21.4312 18.0649 21.4456C18.0595 21.454 18.0546 21.4626 18.0495 21.4713C18.0414 21.485 18.0336 21.4989 18.0265 21.513C18.0218 21.5222 18.0176 21.5315 18.0133 21.5411C18.0068 21.5554 18.0007 21.5701 17.9952 21.5847C17.9932 21.5899 17.9907 21.5948 17.9888 21.5999L16.559 25.6502L15.5842 28.4119C15.5713 28.4486 15.562 28.4859 15.5551 28.5235H13.1145C12.7092 28.5235 12.3806 28.852 12.3806 29.2574C12.3806 29.6627 12.7092 29.9913 13.1145 29.9913H33.4382C33.8435 29.9913 34.172 29.6627 34.172 29.2574C34.172 28.852 33.8435 28.5235 33.4382 28.5235H18.8568L23.3324 26.9436C23.3361 26.9422 23.3396 26.9404 23.3433 26.939C23.3607 26.9326 23.3778 26.9253 23.3947 26.9176C23.4014 26.9145 23.4082 26.9116 23.4147 26.9083C23.4323 26.8996 23.4496 26.8899 23.4666 26.8795C23.472 26.8762 23.4777 26.8732 23.4831 26.8698C23.5007 26.8584 23.5179 26.846 23.5348 26.833C23.539 26.8297 23.5434 26.8269 23.5475 26.8236C23.5679 26.8072 23.5879 26.7895 23.6069 26.7706L38.7089 11.6687H45.0814V27.347L34.5838 37.8448C34.2971 38.1315 34.2971 38.5961 34.5838 38.8827C34.6016 38.9006 34.6203 38.9174 34.6395 38.9331C34.7741 39.0427 34.9384 39.0976 35.1027 39.0976C35.267 39.0976 35.4314 39.0427 35.5659 38.9331C35.5851 38.9174 35.6038 38.9006 35.6217 38.8827C35.6219 38.8824 35.6217 38.8827 35.6219 38.8824L48.5325 25.9717V32.4465ZM21.7458 25.9469L19.6437 26.689L18.2431 25.2884L18.9852 23.1863L21.7458 25.9469Z" fill="white"/>
</g>
<defs>
<clipPath id="clip0_2_499">
<rect width="50" height="50" fill="white"/>
</clipPath>
</defs>
</svg>
