<svg id="Layer_1" data-name="Layer 1" xmlns="http://www.w3.org/2000/svg" viewBox="0 0 12.67 12.07"><defs><style>.cls-1{fill:#ffc809;}</style></defs><title>star</title><path class="cls-1" d="M7,1.17,8.8,4.82l4,.59L9.92,8.25l.68,4L7,10.37,3.4,12.26l.68-4L1.17,5.41l4-.59Z" transform="translate(-0.67 -0.69)"/><path class="cls-1" d="M10.61,12.76a.53.53,0,0,1-.24-.06L7,10.93,3.63,12.7a.51.51,0,0,1-.53,0,.52.52,0,0,1-.2-.49l.65-3.76L.82,5.77a.51.51,0,0,1-.13-.52.51.51,0,0,1,.4-.34l3.78-.55L6.55,1a.52.52,0,0,1,.9,0L9.13,4.36l3.78.55a.51.51,0,0,1,.4.34.51.51,0,0,1-.13.52L10.45,8.42l.65,3.76a.49.49,0,0,1-.49.58ZM7,9.87a.59.59,0,0,1,.23.05l2.71,1.43-.52-3a.51.51,0,0,1,.15-.44l2.19-2.13-3-.45A.5.5,0,0,1,8.35,5L7,2.3,5.65,5a.5.5,0,0,1-.38.27l-3,.45L4.43,7.89a.51.51,0,0,1,.15.44l-.52,3L6.77,9.92A.59.59,0,0,1,7,9.87Z" transform="translate(-0.67 -0.69)"/></svg>