<svg width="52" height="53" viewBox="0 0 52 53" fill="none" xmlns="http://www.w3.org/2000/svg">
<g clip-path="url(#clip0_2_511)">
<path d="M35.3457 15.7881C34.7841 15.7881 34.3281 16.2428 34.3281 16.8053C34.3281 17.3674 34.7841 17.8229 35.3457 17.8229C35.9086 17.8229 36.3634 17.3674 36.3634 16.8053C36.3634 16.2428 35.9086 15.7881 35.3457 15.7881Z" fill="#77DD77"/>
<path d="M16.8562 34.2772C16.2933 34.2772 15.8386 34.7332 15.8386 35.2948C15.8386 35.8577 16.2933 36.3124 16.8562 36.3124C17.4179 36.3124 17.8738 35.8577 17.8738 35.2948C17.8738 34.7332 17.4179 34.2772 16.8562 34.2772Z" fill="#77DD77"/>
<path opacity="0.88" d="M50.8866 6.26028C50.5432 6.18038 50.1822 6.28413 49.9342 6.53456L45.7155 10.7867H43.693L41.4665 8.47995V6.42922L45.6248 2.20891C45.8709 1.95928 45.9711 1.60033 45.8896 1.25887C45.8085 0.917813 45.5573 0.64274 45.2249 0.530644C44.1803 0.178454 43.0872 -2.55277e-05 41.9753 -2.55277e-05C38.6609 -2.55277e-05 35.6498 1.54547 33.714 4.24016C31.9022 6.76272 31.3437 9.85412 32.1438 12.8127L24.6481 20.3085L12.1601 7.79186V5.33528C12.1601 4.97793 11.9725 4.64641 11.666 4.46276L4.47075 0.145064C4.07006 -0.0954267 3.55768 -0.0322234 3.22775 0.298103L0.349812 3.17564C0.0198826 3.50597 -0.0433206 4.01835 0.196772 4.41904L4.51368 11.6143C4.69732 11.9207 5.02844 12.108 5.3858 12.1084L7.84159 12.1092L20.3308 24.6258L12.8637 32.0929C9.90504 31.2931 6.81205 31.8524 4.28829 33.6655C1.59519 35.6001 0.0508881 38.6104 0.0508881 41.9248C0.0508881 43.0362 0.229368 44.1298 0.581557 45.174C0.694051 45.5083 0.971907 45.7607 1.31535 45.8402C1.65919 45.9201 2.01973 45.8164 2.26817 45.566L6.48649 41.3142H8.52013L10.8372 43.6313V45.6649L6.58547 49.8833C6.33504 50.1317 6.23129 50.4922 6.31119 50.8361C6.39069 51.1795 6.64311 51.4574 6.97741 51.5699C8.02166 51.9221 9.11519 52.1005 10.2266 52.1005C13.541 52.1005 16.5509 50.5558 18.486 47.8627C20.299 45.339 20.8583 42.2464 20.0585 39.2878L26.0557 33.2906L27.4294 34.7828L26.799 35.4129C26.4015 35.8104 26.4015 36.4547 26.799 36.8523C27.1965 37.2494 27.8405 37.2494 28.2384 36.8523L28.8092 36.2814L41.6987 50.2824C41.7082 50.2927 41.7181 50.3026 41.7281 50.3126C44.1131 52.6976 47.9773 52.6984 50.3635 50.3122C52.7429 47.9315 52.7429 44.0578 50.3635 41.6772C50.3531 41.6668 50.3424 41.6569 50.3317 41.647L36.3089 28.7821L36.8734 28.2177C37.2709 27.8205 37.2709 27.1762 36.8734 26.7787C36.4759 26.3812 35.8319 26.3812 35.434 26.7787L34.8079 27.4052L33.3129 26.033L39.3391 20.0068C40.1957 20.2358 41.0798 20.3518 41.9753 20.3518C47.5865 20.3518 52.1511 15.7869 52.1511 10.1761C52.1511 9.06428 51.9726 7.97114 51.6204 6.9265C51.5079 6.5922 51.23 6.33978 50.8866 6.26028ZM8.98402 10.3729C8.79321 10.1817 8.53444 10.0843 8.26413 10.0843L5.96258 10.0835L2.35085 4.05333L4.10504 2.29914L10.1249 5.91167V8.21322C10.1249 8.48273 10.2318 8.74111 10.4222 8.93191L23.2091 21.7479L21.7698 23.1868L8.98402 10.3729ZM34.8683 30.2227L48.9388 43.1308C50.5106 44.7193 50.5058 47.2911 48.9241 48.8736C47.3389 50.4588 44.7726 50.4636 43.181 48.8875L30.2493 34.8409L34.8683 30.2227ZM33.3674 28.8453L28.8696 33.3423L27.4958 31.8501L31.8723 27.4731L33.3674 28.8453ZM41.9753 18.3166C41.0853 18.3166 40.21 18.1739 39.3745 17.8925C39.0084 17.7696 38.6037 17.8642 38.3302 18.1373C33.2286 23.2389 22.236 34.2311 18.1882 38.2793C17.9148 38.5528 17.8198 38.9574 17.9434 39.3239C18.7893 41.8358 18.3846 44.515 16.8328 46.6754C15.2853 48.8295 12.8772 50.0653 10.2266 50.0653C9.92889 50.0653 9.63274 50.049 9.33939 50.0176L12.5715 46.8105C12.7639 46.6197 12.8724 46.3598 12.8724 46.0883V43.2095C12.8724 42.9396 12.7651 42.6809 12.5743 42.4901L9.66097 39.5768C9.47016 39.3859 9.21139 39.2786 8.94148 39.2786H6.06275C5.79126 39.2786 5.53129 39.3871 5.34009 39.5795L2.13342 42.8116C2.10162 42.5183 2.08572 42.2221 2.08572 41.9244C2.08572 39.2735 3.32116 36.8658 5.47564 35.3183C7.63568 33.7664 10.3153 33.3614 12.8275 34.2077C13.1936 34.3313 13.5983 34.2363 13.8717 33.9628C13.9278 33.9071 33.9994 13.8351 34.0137 13.8208C34.2872 13.5473 34.3818 13.1431 34.2586 12.7766C33.4123 10.2647 33.8161 7.58635 35.3668 5.42751C36.9155 3.27144 39.324 2.0352 41.9749 2.0352C42.2818 2.0352 42.5867 2.05229 42.8888 2.08568L39.7239 5.29792C39.5362 5.48832 39.4313 5.74471 39.4313 6.01184V8.89057C39.4313 9.15451 39.5335 9.40772 39.7167 9.59733L42.5283 12.5106C42.7199 12.7094 42.9842 12.8215 43.2605 12.8215H46.1392C46.4103 12.8215 46.6703 12.7134 46.8615 12.5206L50.0681 9.28887C50.0999 9.58223 50.1158 9.87837 50.1158 10.1761C50.1158 14.6647 46.464 18.3166 41.9753 18.3166Z" fill="white"/>
<path d="M31.7483 18.9638L19.0142 31.6978C18.6171 32.095 18.6171 32.7393 19.0142 33.1368C19.4118 33.5343 20.0561 33.5343 20.4536 33.1368L33.1877 20.4027C33.5852 20.0056 33.5852 19.3613 33.1877 18.9638C32.7902 18.5663 32.1458 18.5663 31.7483 18.9638Z" fill="#77DD77"/>
<path d="M44.6076 45.9961C45.0051 46.3924 45.6495 46.3924 46.047 45.9938C46.4437 45.5958 46.4425 44.9515 46.0446 44.5548L36.8722 35.4118C36.4742 35.0151 35.8295 35.0163 35.4332 35.4142C35.0361 35.8125 35.0373 36.4564 35.4352 36.8531L44.6076 45.9961Z" fill="#77DD77"/>
</g>
<defs>
<clipPath id="clip0_2_511">
<rect width="52" height="52.1017" fill="white"/>
</clipPath>
</defs>
</svg>
