<?xml version="1.0" encoding="utf-8"?>
<!-- Generator: Adobe Illustrator 24.0.1, SVG Export Plug-In . SVG Version: 6.00 Build 0)  -->
<svg version="1.1" id="Layer_1" xmlns="http://www.w3.org/2000/svg" xmlns:xlink="http://www.w3.org/1999/xlink" x="0px" y="0px"
	 viewBox="0 0 24 24" style="enable-background:new 0 0 24 24;" xml:space="preserve">
<style type="text/css">
	.st0{fill:#F2F2F2;}
</style>
<path class="st0" d="M8.3,21.9c-2.6,0-5.3-0.7-7.7-2.1c-0.4-0.2-0.6-0.7-0.5-1.1C0.2,18.3,0.6,18,1,18c1.7,0.1,3.4-0.3,4.9-1
	c-3.7-2.3-4.7-5.5-4.8-8C1,6.1,2,3.7,2.1,3.6C2.2,3.3,2.5,3,2.9,3c0.4,0,0.7,0.1,0.9,0.4C4.7,4.7,6,5.8,7.4,6.5
	c1.1,0.6,2.4,0.9,3.6,1c0-1.1,0.3-2.2,0.9-3.1c0.6-0.9,1.5-1.6,2.6-2c1.1-0.4,2.2-0.5,3.3-0.2c0.9,0.2,1.7,0.6,2.3,1.2
	c0.8-0.3,1.6-0.7,2.3-1.2c0.3-0.2,0.8-0.2,1.1,0s0.5,0.7,0.4,1.1c-0.3,1.4-1,2.7-2,3.8c0,0.2,0,0.3,0,0.5c0,5.5-2.4,10.1-6.7,12.5
	C13.2,21.3,10.8,21.9,8.3,21.9z M5,19.5c3.3,0.8,6.6,0.4,9.4-1.2c3.6-2.1,5.7-6.1,5.7-10.8c0-0.2,0-0.4-0.1-0.6
	c-0.1-0.3,0-0.7,0.3-0.9c0.2-0.2,0.4-0.5,0.6-0.7c-0.2,0.1-0.5,0.2-0.7,0.2c-0.4,0.1-0.8,0-1-0.3c-0.5-0.5-1.1-0.9-1.8-1.1
	c-0.7-0.2-1.4-0.1-2.1,0.1c-0.7,0.3-1.2,0.7-1.6,1.3c-0.4,0.6-0.6,1.3-0.6,2v1c0,0.5-0.4,1-1,1c-1.9,0.1-3.8-0.4-5.5-1.2
	C5.3,7.7,4.3,6.9,3.4,6c-0.6,2.6-0.8,7.5,5,10.1C8.7,16.2,9,16.5,9,16.9s-0.1,0.7-0.4,0.9C7.4,18.6,6.2,19.2,5,19.5z"/>
</svg>
