<svg id="Layer_1" data-name="Layer 1" xmlns="http://www.w3.org/2000/svg" viewBox="0 0 42.2 37.87"><defs><style>.cls-1{fill:#fff;}</style></defs><title>wallet</title><path class="cls-1" d="M43.33,27.6a1.6,1.6,0,0,1-1.6-1.6V18.93H13A5.92,5.92,0,0,1,7.07,13,5.94,5.94,0,0,1,13,7.07H39a1.6,1.6,0,0,1,1.6,1.6v7.06h2.73a1.6,1.6,0,0,1,1.6,1.6V26A1.6,1.6,0,0,1,43.33,27.6ZM13,10.27A2.73,2.73,0,0,0,10.27,13,2.73,2.73,0,0,0,13,15.73H37.4V10.27Z" transform="translate(-7.07 -7.07)"/><path class="cls-1" d="M43.33,44.93H13A5.94,5.94,0,0,1,7.07,39V13a1.6,1.6,0,1,1,3.2,0V39A2.73,2.73,0,0,0,13,41.73H41.73V34.67a1.6,1.6,0,0,1,3.2,0v8.66A1.59,1.59,0,0,1,43.33,44.93Z" transform="translate(-7.07 -7.07)"/><path class="cls-1" d="M47.67,36.27H39A5.94,5.94,0,1,1,39,24.4h8.67a1.6,1.6,0,0,1,1.6,1.6v8.67A1.6,1.6,0,0,1,47.67,36.27ZM39,27.6a2.68,2.68,0,0,0-1.93.8A2.74,2.74,0,0,0,39,33.07h7.07V27.6Z" transform="translate(-7.07 -7.07)"/></svg>