<svg width="277" height="135" viewBox="0 0 277 135" fill="none" xmlns="http://www.w3.org/2000/svg">
<path opacity="0.38" d="M0 72H275" stroke="#F3F3F3" stroke-opacity="0.5" stroke-dasharray="8 8"/>
<path opacity="0.38" d="M0 134H275" stroke="#F3F3F3" stroke-opacity="0.5" stroke-dasharray="8 8"/>
<path opacity="0.38" d="M0 9H275" stroke="#F3F3F3" stroke-opacity="0.5" stroke-dasharray="8 8"/>
<path d="M38.209 87.6876C23.8817 91.88 14.0076 116.822 2 120.912V131H275V70.1379C261.632 70.1379 259.849 88.7264 253.558 83.6094C247.267 78.4923 240.66 43.3101 233.321 45.1708C225.982 47.0316 221.954 -2.34248 206.49 2.30939C191.025 6.96125 179.644 60.0928 167.324 37.2987C155.005 14.5046 152.387 26.5318 139.281 21.88C126.176 17.2281 120.435 72.955 108.022 71.1742C95.609 69.3933 92.2955 115.743 79.6279 111.444C64.2775 106.235 65.6136 103.317 58.7882 96.5594C51.9627 89.802 45.8452 85.4531 38.209 87.6876Z" fill="url(#paint0_linear_681_18)"/>
<path d="M2 122C14.0076 117.872 23.8817 92.7025 38.209 88.4718C45.8452 86.2169 51.9627 90.6056 58.7882 97.4248C65.6136 104.244 64.2775 107.189 79.6279 112.446C92.2955 116.784 95.609 70.0101 108.022 71.8072C120.435 73.6043 126.176 17.3675 139.281 22.0619C152.387 26.7563 155.005 14.619 167.324 37.6218C179.644 60.6245 191.025 7.00665 206.49 2.31222C221.954 -2.38222 225.982 47.4437 233.321 45.5659C240.66 43.6881 247.267 79.1924 253.558 84.3562C259.849 89.5201 261.632 70.7615 275 70.7615" stroke="#6FE999" stroke-width="4" stroke-linecap="round" stroke-linejoin="round"/>
<defs>
<linearGradient id="paint0_linear_681_18" x1="138.5" y1="2" x2="139" y2="136.5" gradientUnits="userSpaceOnUse">
<stop stop-color="#77DD77"/>
<stop offset="1" stop-color="#01413D" stop-opacity="0"/>
</linearGradient>
</defs>
</svg>
